<?xml version="1.0" encoding="UTF-8"?>
<svg width="1000px" height="1000px" viewBox="0 0 1000 1000" version="1.1" xmlns="http://www.w3.org/2000/svg" xmlns:xlink="http://www.w3.org/1999/xlink">
    <!-- Generator: Sketch 52.6 (67491) - http://www.bohemiancoding.com/sketch -->
    <title>rss</title>
    <desc>Created with Sketch.</desc>
    <g id="rss" stroke="none" stroke-width="1" fill="none" fill-rule="evenodd">
        <path d="M274.966887,1.13686838e-13 L724.927152,1.13686838e-13 C774.07947,1.13686838e-13 813.655629,3.21854305 845.721854,12.7152318 C875.84106,21.615894 897.774834,35.205298 916.13245,49.3112583 C947.92053,73.7880795 970.370861,108.556291 980.066225,133.231788 C999.655629,182.980132 999.854305,239.403974 999.854305,274.927152 L999.854305,724.887417 C999.854305,760.450331 999.655629,816.913907 980.066225,866.662252 C970.370861,891.298013 947.92053,926.066225 916.13245,950.582781 C897.774834,964.688742 875.84106,978.198675 845.721854,987.139073 C813.655629,996.635762 774.07947,999.854305 724.887417,999.854305 L274.966887,999.854305 C225.774834,999.854305 186.238411,996.635762 154.13245,987.139073 C124.013245,978.198675 102.119205,964.688742 83.7218543,950.582781 C51.9337748,926.066225 29.4834437,891.298013 19.7880795,866.662252 C0.198675497,816.913907 -5.68434189e-14,760.450331 -5.68434189e-14,724.887417 L-5.68434189e-14,274.927152 C-5.68434189e-14,239.403974 0.198675497,182.980132 19.7880795,133.231788 C29.4834437,108.556291 51.9337748,73.7880795 83.7218543,49.3112583 C102.119205,35.205298 124.013245,21.615894 154.13245,12.7152318 C186.198675,3.21854305 225.774834,1.13686838e-13 274.966887,1.13686838e-13 Z M213.364062,177.053595 C203.544383,176.542277 194.951238,179.690943 187.790285,186.440429 C180.629332,193.189916 177.000031,201.68797 177.000031,211.607864 L177.000031,257.746732 C177.000031,276.05227 191.057101,291.17616 209.367836,292.301296 C477.794103,308.459063 692.501383,523.099322 708.663833,791.442903 C709.789759,809.748294 725.014183,824.003667 743.427006,823.799702 L789.382869,823.799702 C799.304636,823.799702 807.806049,820.172998 814.557171,813.014546 C821.308293,805.958299 824.458225,797.16783 823.946305,787.247936 C805.63557,458.567947 542.247122,195.358987 213.364062,177.053595 Z M214.362749,380.18469 C204.337414,379.367498 195.355152,382.321813 187.990023,389.172764 C180.624893,396.024602 177.000031,404.614951 177.000031,414.738959 L177.000031,460.879157 C177.000031,478.77573 190.466766,493.597 208.369149,495.232862 C365.701509,510.061675 491.035948,635.157091 505.868295,792.440838 C507.506141,810.336967 522.33257,823.99997 540.233474,823.99997 L586.387594,823.99997 C596.515017,823.99997 605.108161,820.177287 611.961371,812.814279 C618.712493,805.450826 621.770693,796.471183 620.95251,786.449529 C602.948039,570.363474 430.617623,398.18332 214.362749,380.18469 Z M271.705119,634.249971 C219.351569,634.318326 176.958515,676.787372 177.000031,729.124822 C176.958351,781.462388 219.351453,823.931615 271.705119,823.99997 C296.881538,824.020111 321.032592,814.030847 338.835056,796.233951 C356.63752,778.437054 366.629974,754.293486 366.609944,729.124822 C366.629896,703.95621 356.637406,679.812718 338.834951,662.015885 C321.032496,644.219053 296.881486,634.22983 271.705119,634.249971 Z" id="Combined-Shape" fill="#F8EC23"></path>
    </g>
</svg>