<?xml version="1.0" encoding="UTF-8"?>
<svg width="70px" height="70px" viewBox="0 0 70 70" version="1.1" xmlns="http://www.w3.org/2000/svg" xmlns:xlink="http://www.w3.org/1999/xlink">
    <!-- Generator: Sketch 64 (93537) - https://sketch.com -->
    <title>Artboard Copy</title>
    <desc>Created with Sketch.</desc>
    <g id="Artboard-Copy" stroke="none" stroke-width="1" fill="none" fill-rule="evenodd">
        <path d="M51.8587763,31.765873 C42.6719905,26.3100916 27.5185926,25.8084497 18.7487074,28.4701468 C17.3400941,28.8975974 15.8508234,28.1025936 15.4240534,26.6943207 C14.9972834,25.2850268 15.7916065,23.796777 17.2009004,23.3686457 C27.268112,20.31285 44.0036899,20.902977 54.5796902,27.1809883 C55.8463872,27.9331108 56.2619264,29.5690625 55.5111651,30.8337174 C54.7597232,32.1004144 53.1224102,32.5179955 51.8587763,31.765873 Z M51.5579272,39.8465961 C50.913348,40.8924209 49.5459143,41.220496 48.5014509,40.5782991 C40.8423928,35.8705563 29.1633928,34.5065259 20.1021876,37.2570484 C18.9270387,37.6120094 17.6862066,36.9497331 17.3292036,35.7766261 C16.9752636,34.6018175 17.6378802,33.3630274 18.8109872,33.0056841 C29.1620315,29.8644663 42.0301339,31.3857278 50.8269049,36.7918214 C51.8713684,37.4350393 52.2001242,38.8031537 51.5579272,39.8465961 Z M48.0705969,47.6070716 C47.5584049,48.4469986 46.4649344,48.7100713 45.6280704,48.1982196 C38.9355409,44.1078299 30.5117681,43.1841826 20.5912375,45.4500794 C19.6352591,45.66925 18.6823436,45.0702745 18.464194,44.1142961 C18.2453638,43.158658 18.8422973,42.2057426 19.8003176,41.987593 C30.6567474,39.5059289 39.9691138,40.5738748 47.4811507,45.1642048 C48.3186953,45.6757162 48.5824487,46.7698673 48.0705969,47.6070716 Z M35,6.5 C19.2602188,6.5 6.5,19.2598784 6.5,34.9996597 C6.5,50.7411425 19.2602188,63.5 35,63.5 C50.7404619,63.5 63.5,50.7411425 63.5,34.9996597 C63.5,19.2598784 50.7404619,6.5 35,6.5 L35,6.5 Z" id="Spotify_Icon_RGB_White" fill="#F8EC23"></path>
    </g>
</svg>