<svg viewBox="0 0 24 24" xmlns="http://www.w3.org/2000/svg" xmlns:xlink="http://www.w3.org/1999/xlink"><linearGradient id="a" x1="50%" x2="50%" y1="0%" y2="100%"><stop offset="0" stop-color="#f452ff"/><stop offset="1" stop-color="#832bc1"/></linearGradient><g fill="none" fill-rule="evenodd"><path d="m23.528 20.8c-.232.592-.768 1.424-1.536 2.016-.44.336-.968.664-1.688.88-.768.232-1.72.304-2.904.304h-10.8c-1.184 0-2.128-.08-2.904-.304-.72-.216-1.248-.536-1.688-.88-.76-.584-1.304-1.424-1.536-2.016-.464-1.192-.472-2.544-.472-3.4v-10.8c0-.856.008-2.208.472-3.4.232-.592.768-1.424 1.536-2.016.44-.336.968-.664 1.688-.88.776-.224 1.72-.304 2.904-.304h10.8c1.184 0 2.128.08 2.904.304.72.216 1.248.536 1.688.88.76.584 1.304 1.424 1.536 2.016.472 1.192.472 2.552.472 3.4v10.8c0 .856-.008 2.208-.472 3.4z" fill="url(#a)"/><path d="m12 13.176c.744 0 1.376.248 1.736.624.192.192.288.4.32.688.064.56.032 1.04-.04 1.816-.064.736-.184 1.712-.336 2.712-.112.712-.2 1.096-.28 1.368-.128.44-.624.832-1.4.832s-1.264-.384-1.4-.832c-.08-.272-.168-.656-.28-1.368-.152-.992-.272-1.976-.336-2.712-.064-.776-.104-1.256-.04-1.816.032-.288.136-.488.32-.688.36-.384.992-.624 1.736-.624zm-.024-10.52001264c4.664-.00798736 8.464 3.78401264 8.48 8.44001264 0 3.68-2.36 6.816-5.648 7.968-.08.032-.168-.032-.152-.12l.12-.864c.008-.104.072-.192.168-.232 2.6-1.144 4.424-3.736 4.424-6.752 0-4.08-3.336-7.392-7.424-7.36-3.992.032-7.256 3.288-7.296 7.288-.032 3.048 1.8 5.68 4.424 6.824.088.048.152.128.168.232.032.288.08.576.12.864.008.08-.072.152-.152.12-3.32-1.168-5.696-4.352-5.648-8.072.064-4.592 3.824-8.32 8.416-8.33601264zm5.680018 8.44001264c0 1.936-.984018 3.656-2.472018 4.672-.08.056-.184-.008-.176-.096.016-.344.024-.648.008-.96 0-.104.04-.2.112-.272.888-.84 1.448-2.024 1.448-3.336 0-2.576-2.144-4.672-4.752-4.568-2.4.096-4.328 2.048-4.392 4.448-.032 1.36.528 2.592 1.448 3.456.08.072.12.168.112.272-.016.32-.016.624.008.968 0 .088-.104.144-.176.096-1.512-1.032-2.496-2.776-2.472-4.744.04-2.992 2.44-5.464 5.432-5.576 3.216-.128 5.88 2.456 5.872018 5.64zm-5.656018-2.656c1.088 0 1.968.888 1.968 1.968 0 1.088-.88 1.968-1.968 1.968s-1.968-.88-1.968-1.968.88-1.968 1.968-1.968z" fill="#fff"/></g></svg>