<?xml version="1.0" encoding="UTF-8"?>
<svg width="70px" height="70px" viewBox="0 0 70 70" version="1.1" xmlns="http://www.w3.org/2000/svg" xmlns:xlink="http://www.w3.org/1999/xlink">
    <!-- Generator: Sketch 64 (93537) - https://sketch.com -->
    <title>Artboard</title>
    <desc>Created with Sketch.</desc>
    <g id="Artboard" stroke="none" stroke-width="1" fill="none" fill-rule="evenodd">
        <path d="M34.403647,16.6433721 C43.196324,16.3034626 50.4591395,23.3930032 50.4591395,32.1561934 C50.4591395,36.6138634 48.581436,40.6377443 45.5796869,43.4703233 C45.3252468,43.7098785 45.1867541,44.0530252 45.2060787,44.4026464 C45.2672731,45.4676961 45.2447278,46.506848 45.1738711,47.6754892 C45.1545465,47.9895008 45.5023887,48.186972 45.7600495,48.0089242 C50.7940987,44.5515592 54.1082615,38.7342512 54.1082615,32.1561934 C54.1082615,21.321174 45.1287804,12.5579838 34.2587128,12.9820613 C24.1584069,13.3737666 16.051752,21.7452515 15.9229216,31.9069264 C15.8391818,38.5885757 19.1726692,44.5062379 24.2711335,48.0089242 C24.5287944,48.186972 24.8734158,47.9895008 24.8540912,47.6754892 C24.7832345,46.506848 24.7606892,45.4676961 24.8218836,44.4026464 C24.8412082,44.0530252 24.7059362,43.7098785 24.4514961,43.4703233 C21.3531243,40.550339 19.4528754,36.3645965 19.5752643,31.7385903 C19.7878345,23.6034234 26.3130959,16.9606209 34.403647,16.6433721 M34.9189687,3.50010246 C19.4077847,3.54552668 6.69544189,16.1933966 6.50219624,31.7871488 C6.34759972,44.4155954 14.3705149,55.2182424 25.5691001,59.1806158 C25.839644,59.2744956 26.1166295,59.0478893 26.0747596,58.7630127 C25.9266046,57.7821311 25.7881119,56.794775 25.6625022,55.8268423 C25.6174115,55.4836955 25.4016206,55.1891073 25.0827653,55.0499063 C16.2321146,51.1619893 10.0514746,42.2401747 10.1513182,31.9036892 C10.2801486,18.336445 21.3015921,7.27805651 34.7965798,7.16799059 C48.594319,7.05792466 59.8540988,18.3073099 59.8540988,32.1464817 C59.8540988,42.3793757 53.6992249,51.1943616 44.9162102,55.0499063 C44.6037964,55.1891073 44.3880055,55.4869328 44.339694,55.8268423 C44.2140844,56.794775 44.0755917,57.7821311 43.9306574,58.7630127 C43.8855668,59.0478893 44.1625522,59.2744956 44.4330961,59.1806158 C55.528617,55.2570892 63.5,44.6227783 63.5,32.1464817 C63.5,16.322886 50.6717098,3.45812138 34.9189687,3.50010246 M28.3679413,29.8091993 C28.3679413,33.4931707 31.3374827,36.4778996 35.0027085,36.4778996 C38.6647135,36.4778996 41.634255,33.4931707 41.634255,29.8091993 C41.634255,26.1317025 38.6647135,23.1437362 35.0027085,23.1437362 C31.3374827,23.1437362 28.3679413,26.1317025 28.3679413,29.8091993 M40.8677139,41.2949026 C39.6534871,40.0064838 37.5149019,39.1777521 34.996267,39.1777521 C32.4711905,39.1777521 30.3358261,40.0064838 29.1215993,41.2949026 C28.4871094,41.9682471 28.1521503,42.6577778 28.0458652,43.6418966 C27.8397365,45.5453897 27.9556839,47.1834297 28.1779164,49.8023513 C28.3872658,52.3014953 28.7898609,55.629371 29.3116242,59.0187542 C29.6852324,61.4304929 29.9879839,62.7318606 30.2649694,63.6641837 C30.7126551,65.1792089 32.38423,66.5 34.996267,66.5 C37.608304,66.5 39.2766581,65.1759716 39.7243438,63.6641837 C40.0013293,62.7318606 40.3040808,61.4304929 40.6744683,59.0187542 C41.1994523,55.629371 41.6020474,52.3014953 41.8113968,49.8023513 C42.0336293,47.1834297 42.1495767,45.5453897 41.943448,43.6418966 C41.8403837,42.6577778 41.5022038,41.9682471 40.8677139,41.2949026" id="Fill-4" fill="#F8EC23"></path>
    </g>
</svg>