<?xml version="1.0" encoding="UTF-8"?>
<svg width="1000px" height="1000px" viewBox="0 0 1000 1000" version="1.1" xmlns="http://www.w3.org/2000/svg" xmlns:xlink="http://www.w3.org/1999/xlink">
    <!-- Generator: Sketch 52.6 (67491) - http://www.bohemiancoding.com/sketch -->
    <title>applepodcast</title>
    <desc>Created with Sketch.</desc>
    <g id="applepodcast" stroke="none" stroke-width="1" fill="none" fill-rule="evenodd">
        <path d="M274.966887,0 L724.927152,0 C774.07947,0 813.655629,3.21854305 845.721854,12.7152318 C875.84106,21.615894 897.774834,35.205298 916.13245,49.3112583 C947.92053,73.7880795 970.370861,108.556291 980.066225,133.231788 C999.655629,182.980132 999.854305,239.403974 999.854305,274.927152 L999.854305,724.887417 C999.854305,760.450331 999.655629,816.913907 980.066225,866.662252 C970.370861,891.298013 947.92053,926.066225 916.13245,950.582781 C897.774834,964.688742 875.84106,978.198675 845.721854,987.139073 C813.655629,996.635762 774.07947,999.854305 724.887417,999.854305 L274.966887,999.854305 C225.774834,999.854305 186.238411,996.635762 154.13245,987.139073 C124.013245,978.198675 102.119205,964.688742 83.7218543,950.582781 C51.9337748,926.066225 29.4834437,891.298013 19.7880795,866.662252 C0.198675497,816.913907 -1.13686838e-13,760.450331 -1.13686838e-13,724.887417 L-1.13686838e-13,274.927152 C-1.13686838e-13,239.403974 0.198675497,182.980132 19.7880795,133.231788 C29.4834437,108.556291 51.9337748,73.7880795 83.7218543,49.3112583 C102.119205,35.205298 124.013245,21.615894 154.13245,12.7152318 C186.198675,3.21854305 225.774834,0 274.966887,0 Z M492.596632,275.233052 C601.073453,271.060866 690.676102,358.080734 690.676102,465.643648 C690.676102,520.35888 667.510539,569.749608 630.477427,604.51782 C627.338354,607.458217 625.629744,611.670138 625.868155,615.961529 C626.623122,629.034376 626.344976,641.789343 625.470804,656.133714 C625.232393,659.988019 629.523784,662.41186 632.702592,660.226429 C694.808552,617.789343 735.69597,546.38537 735.69597,465.643648 C735.69597,332.65027 624.914513,225.087356 490.808552,230.292654 C366.199281,235.100601 266.186036,337.855568 264.596632,462.584045 C263.563519,544.59729 304.689347,617.233052 367.590009,660.226429 C370.768817,662.41186 375.020473,659.988019 374.782062,656.133714 C373.90789,641.789343 373.629744,629.034376 374.384711,615.961529 C374.623122,611.670138 372.954248,607.458217 369.815175,604.51782 C331.590009,568.67676 308.146301,517.299277 309.656234,460.51782 C312.278751,360.663515 392.782062,279.127092 492.596632,275.233052 Z M498.954248,113.908549 C307.590009,114.46484 150.755572,269.709873 148.371466,461.113847 C146.464181,616.120469 245.444314,748.716496 383.603254,797.352257 C386.941003,798.504575 390.358221,795.723118 389.841665,792.226429 C388.01385,780.186694 386.305241,768.067489 384.755572,756.186694 C384.199281,751.974774 381.537029,748.35888 377.603254,746.65027 C268.411201,698.928416 192.159546,589.418482 193.391334,462.54431 C194.980738,296.014509 330.954248,160.279409 497.444314,158.928416 C667.669479,157.577423 806.583387,295.656893 806.583387,465.524443 C806.583387,591.127092 730.649612,699.325767 622.291996,746.65027 C618.437691,748.35888 615.77544,752.014509 615.179413,756.186694 C613.629744,768.067489 611.921135,780.186694 610.133056,792.226429 C609.576764,795.723118 612.993983,798.504575 616.331731,797.352257 C753.219148,749.193317 851.563519,618.663515 851.563519,465.524443 C851.563519,271.299277 693.298619,113.391992 498.954248,113.908549 Z M418.133056,436.835701 C418.133056,482.054244 454.768817,518.690005 499.98736,518.690005 C545.166168,518.690005 581.80193,482.054244 581.80193,436.835701 C581.80193,391.696628 545.166168,355.021131 499.98736,355.021131 C454.768817,355.021131 418.133056,391.696628 418.133056,436.835701 Z M572.344976,577.815833 C557.364844,562.001264 530.980738,551.829078 499.90789,551.829078 C468.755572,551.829078 442.411201,562.001264 427.431069,577.815833 C419.603254,586.080734 415.470804,594.54431 414.159546,606.62378 C411.616499,629.988019 413.046963,650.093979 415.788685,682.239674 C418.371466,712.915171 423.338354,753.762853 429.77544,795.365502 C434.384711,824.968151 438.119811,840.941661 441.537029,852.38537 C447.060208,870.981396 467.682725,887.193317 499.90789,887.193317 C532.133056,887.193317 552.715837,870.941661 558.239016,852.38537 C561.656234,840.941661 565.391334,824.968151 569.96087,795.365502 C576.437691,753.762853 581.404579,712.915171 583.98736,682.239674 C586.729082,650.093979 588.159546,629.988019 585.616499,606.62378 C584.344976,594.54431 580.172791,586.080734 572.344976,577.815833 Z" id="Combined-Shape" fill="#F8EC23"></path>
    </g>
</svg>