<?xml version="1.0" encoding="UTF-8"?>
<svg width="70px" height="70px" viewBox="0 0 70 70" version="1.1" xmlns="http://www.w3.org/2000/svg" xmlns:xlink="http://www.w3.org/1999/xlink">
    <!-- Generator: Sketch 64 (93537) - https://sketch.com -->
    <title>Artboard Copy 2</title>
    <desc>Created with Sketch.</desc>
    <g id="Artboard-Copy-2" stroke="none" stroke-width="1" fill="none" fill-rule="evenodd">
        <path d="M34.9999994,52.4886363 C36.9675138,52.4886363 38.5624993,54.0836219 38.5624993,56.0511363 L38.562499,56.051136 L38.5624993,59.9375 C38.5624993,61.9050144 36.9675138,63.5 34.9999994,63.5 C33.032485,63.5 31.4374995,61.9050144 31.4374995,59.9375 L31.4374995,59.9375 L31.4374992,56.051136 L31.4424376,55.8619357 C31.5407894,53.9823793 33.0959532,52.4886363 34.9999994,52.4886363 Z M22.3693178,41.1534091 C24.3368322,41.1534091 25.9318177,42.7483946 25.9318177,44.7159091 L25.9318178,44.7159091 L25.9318177,48.6022727 C25.9318177,50.5697871 24.3368322,52.1647727 22.3693178,52.1647727 C20.4018034,52.1647727 18.8068178,50.5697871 18.8068178,48.6022727 L18.8068178,48.6022727 L18.8068179,44.7159091 L18.811756,44.5267084 C18.9101078,42.6471521 20.4652716,41.1534091 22.3693178,41.1534091 Z M47.6306809,32.4090909 C49.5981953,32.4090909 51.1931808,34.0040764 51.1931808,35.9715909 L51.1931797,35.9715896 L51.1931808,48.6022727 C51.1931808,50.5697871 49.5981953,52.1647727 47.6306809,52.1647727 C45.6631665,52.1647727 44.0681809,50.5697871 44.0681809,48.6022727 L44.0681809,48.6022727 L44.0681798,35.9715896 L44.0731191,35.7823902 C44.1714709,33.9028339 45.7266347,32.4090909 47.6306809,32.4090909 Z M31.4374995,24.6363636 L31.4424376,24.4471629 C31.5407894,22.5676066 33.0959532,21.0738636 34.9999994,21.0738636 C36.9675138,21.0738636 38.5624993,22.6688492 38.5624993,24.6363636 L38.5624993,24.6363636 L38.5624993,45.3636364 C38.5624993,47.3311508 36.9675138,48.9261364 34.9999994,48.9261364 C33.032485,48.9261364 31.4374995,47.3311508 31.4374995,45.3636364 L31.4374995,45.3636364 L31.4374995,24.6363636 Z M10.0624999,29.4943182 C12.0300143,29.4943182 13.6249999,31.0893038 13.6249999,33.0568182 L13.6249998,33.0568182 L13.6249999,36.9431817 C13.6249999,38.9106962 12.0300143,40.5056817 10.0624999,40.5056817 C8.09498555,40.5056817 6.5,38.9106962 6.5,36.9431817 L6.5,36.9431817 L6.5,33.0568182 L6.50493811,32.8676176 C6.60328994,30.9880612 8.15845375,29.4943182 10.0624999,29.4943182 Z M59.9374989,29.4943182 C61.8415451,29.4943182 63.3967089,30.9880612 63.4950607,32.8676176 L63.4999988,33.0568182 L63.5,33.0568178 L63.5,36.9431815 C63.4999988,38.9106962 61.9050133,40.5056817 59.9374989,40.5056817 C58.0334527,40.5056817 56.4782889,39.0119387 56.3799371,37.1323824 L56.374999,36.9431817 L56.3750002,33.0568178 L56.3799371,32.8676176 C56.4782889,30.9880612 58.0334527,29.4943182 59.9374989,29.4943182 Z M22.3693178,17.8352272 C24.3368322,17.8352272 25.9318177,19.4302128 25.9318177,21.3977272 L25.9318178,21.3977272 L25.9318178,34.1093749 C25.8876455,36.0397197 24.3096315,37.5909091 22.3693178,37.5909091 C20.4018034,37.5909091 18.8068178,35.9959235 18.8068178,34.0284091 L18.808,34.109 L18.8068179,34.1093749 L18.8068179,21.3977272 L18.811756,21.2085266 C18.9101078,19.3289702 20.4652716,17.8352272 22.3693178,17.8352272 Z M47.6306809,17.8352272 C49.5981953,17.8352272 51.1931808,19.4302128 51.1931808,21.3977272 L51.1931797,21.397726 L51.1931808,25.2840909 C51.1931808,27.2516053 49.5981953,28.8465909 47.6306809,28.8465909 C45.6631665,28.8465909 44.0681809,27.2516053 44.0681809,25.2840909 L44.0681809,25.2840909 L44.0681798,21.397726 L44.0731191,21.2085266 C44.1714709,19.3289702 45.7266347,17.8352272 47.6306809,17.8352272 Z M34.9999994,6.5 C36.9675138,6.5 38.5624993,8.09498558 38.5624993,10.0625 L38.562499,10.0624998 L38.5624993,13.9488636 C38.5624993,15.916378 36.9675138,17.5113636 34.9999994,17.5113636 C33.032485,17.5113636 31.4374995,15.916378 31.4374995,13.9488636 L31.4374995,13.9488636 L31.4374992,10.0624998 L31.4424376,9.87329935 C31.5407894,7.993743 33.0959532,6.5 34.9999994,6.5 Z" id="Combined-Shape" fill="#F8EC23" fill-rule="nonzero"></path>
    </g>
</svg>