<?xml version="1.0" encoding="UTF-8"?>
<svg width="208px" height="93px" viewBox="0 0 208 93" version="1.1" xmlns="http://www.w3.org/2000/svg" xmlns:xlink="http://www.w3.org/1999/xlink">
    <!-- Generator: Sketch 52.6 (67491) - http://www.bohemiancoding.com/sketch -->
    <title>Group 24</title>
    <desc>Created with Sketch.</desc>
    <g id="Welcome" stroke="none" stroke-width="1" fill="none" fill-rule="evenodd">
        <g id="Desktop-HD" transform="translate(-116.000000, -117.000000)">
            <g id="Group-24" transform="translate(116.000000, 117.000000)">
                <path d="M23.422,15.4787 C23.422,11.7977 20.734,9.6357 16.876,9.6357 L11.268,9.6357 L11.268,31.8377 L16.876,31.8377 C20.734,31.8377 23.422,29.7347 23.422,25.9957 L23.422,15.4787 Z M32.594,14.6617 L32.594,26.8127 C32.594,35.9867 23.83,39.9607 16.876,39.9607 L3.789,39.9607 C2.444,39.9607 2.094,39.3177 2.094,38.2667 L2.094,3.2077 C2.094,2.1567 2.444,1.5127 3.789,1.5127 L16.876,1.5127 C23.83,1.5127 32.594,5.5457 32.594,14.6617 Z" id="Fill-2" fill="#FEFEFE"></path>
                <path d="M69.6437,33.4739 L69.6437,38.2669 C69.6437,39.3179 69.2927,39.9609 67.9487,39.9609 L41.7727,39.9609 C40.4277,39.9609 40.0777,39.3179 40.0777,38.2669 L40.0777,3.2079 C40.0777,2.1569 40.4277,1.5129 41.7727,1.5129 L66.9557,1.5129 C68.2987,1.5129 68.6507,2.1569 68.6507,3.2079 L68.6507,8.0589 C68.6507,9.1099 68.2987,9.7509 66.9557,9.7509 L49.3097,9.7509 L49.3097,16.1209 L64.9687,16.1209 C66.3127,16.1209 66.6637,16.7649 66.6637,17.8159 L66.6637,22.3729 C66.6637,23.4259 66.3127,24.0679 64.9687,24.0679 L49.3097,24.0679 L49.3097,31.7799 L67.9487,31.7799 C69.2927,31.7799 69.6437,32.4229 69.6437,33.4739" id="Fill-4" fill="#FEFEFE"></path>
                <path d="M105.8166,28.5666 C105.8166,36.8636 99.2706,40.8376 90.2736,40.8376 C82.9696,40.8376 74.5556,36.6296 74.5556,28.4496 C74.5556,27.1066 74.9066,26.8126 76.2506,26.8126 L81.9186,26.8126 C83.2616,26.8126 83.9036,26.9896 84.0216,28.4496 C84.0806,29.2106 84.3716,29.9686 85.1306,30.8456 C86.3006,32.2476 88.6966,32.7736 90.8586,32.7736 C94.0126,32.7736 96.5846,32.0726 96.5846,28.8006 C96.5846,25.5276 91.3826,25.4706 86.4166,23.8916 C80.5166,22.0226 75.0826,19.6856 75.0826,12.2636 C75.0826,4.6696 81.9766,0.9296 89.2816,0.6366 C96.7016,0.6366 104.8226,4.0256 104.8226,11.7396 C104.8226,13.1406 104.4716,13.3756 103.1286,13.3756 L97.4016,13.3756 C96.2926,13.3756 96.1166,12.5576 95.8246,11.7976 C95.5896,11.2126 95.2976,10.7456 94.5976,10.0456 C93.4866,8.9926 91.3826,8.4676 89.6306,8.4676 C87.7026,8.4676 84.4886,9.2266 84.4886,11.8546 C84.4886,15.4206 93.0776,16.7066 95.4166,17.6396 C99.6236,18.9246 105.8166,20.6196 105.8166,28.5666" id="Fill-6" fill="#FEFEFE"></path>
                <path d="M131.0627,33.6506 L131.0627,38.2666 C131.0627,39.3176 130.7097,39.9616 129.3677,39.9616 L112.8317,39.9616 C111.4887,39.9616 111.1357,39.3176 111.1357,38.2666 L111.1357,33.6506 C111.1357,32.5976 111.4887,31.9556 112.8317,31.9556 L116.5127,31.9556 L116.5127,9.6356 L112.9487,9.6356 C111.6037,9.6356 111.2527,8.9926 111.2527,7.9416 L111.2527,3.2086 C111.2527,2.1566 111.6037,1.5126 112.9487,1.5126 L129.1917,1.5126 C130.5367,1.5126 130.8867,2.1566 130.8867,3.2086 L130.8867,7.9416 C130.8867,8.9926 130.5367,9.6356 129.1917,9.6356 L125.6857,9.6356 L125.6857,31.9556 L129.3677,31.9556 C130.7097,31.9556 131.0627,32.5976 131.0627,33.6506" id="Fill-8" fill="#FEFEFE"></path>
                <path d="M168.8683,20.2112 L168.8683,28.6842 C168.3423,37.0982 159.8113,40.8372 153.1503,40.8372 C146.2553,40.8372 137.4333,37.3312 137.4333,28.1572 L137.4333,13.7842 C137.4333,4.5522 146.2553,0.6372 153.1503,0.6372 C160.4543,0.6372 168.8683,4.8442 168.8683,12.6732 C168.8683,14.0762 168.5173,14.3092 167.1743,14.3092 L161.5063,14.3092 C159.8703,14.3092 160.1033,13.1412 159.8113,12.3222 C159.1683,10.5132 157.0643,8.7592 153.1503,8.7592 C149.2943,8.7592 146.7223,11.3302 146.7223,15.0692 L146.7223,26.8132 C146.7223,30.5532 149.2943,32.7152 153.1503,32.7152 C156.9493,32.7152 159.6363,30.9622 159.6363,26.4632 L154.3783,26.4632 C153.0333,26.4632 152.6823,25.8202 152.6823,24.7682 L152.6823,20.2112 C152.6823,19.1592 153.0333,18.5162 154.3783,18.5162 L167.1743,18.5162 C168.5173,18.5162 168.8683,19.1592 168.8683,20.2112" id="Fill-10" fill="#FEFEFE"></path>
                <path d="M207.5539,3.2082 L207.5539,38.2672 C207.5539,39.3172 207.2029,39.9612 205.8589,39.9612 L200.5419,39.9612 C199.0799,39.9612 198.6719,39.1432 197.9119,37.9752 L185.5259,17.9332 L185.5259,38.2672 C185.5259,39.6102 184.8819,39.9612 183.8309,39.9612 L178.0459,39.9612 C176.9939,39.9612 176.3519,39.6102 176.3519,38.2672 L176.3519,3.2082 C176.3519,2.1562 176.7019,1.5132 178.0459,1.5132 L183.5389,1.5132 C184.9989,1.5132 185.4079,2.3312 186.1669,3.5012 L198.5549,23.4822 L198.5549,3.2082 C198.5549,1.8632 199.1989,1.5132 200.2489,1.5132 L205.8589,1.5132 C206.9099,1.5132 207.5539,1.8632 207.5539,3.2082" id="Fill-12" fill="#FEFEFE"></path>
                <path d="M32.3605,72.0012 L32.3605,80.4752 C31.8345,88.8892 23.3045,92.6282 16.6435,92.6282 C9.7475,92.6282 0.9255,89.1222 0.9255,79.9482 L0.9255,65.5752 C0.9255,56.3432 9.7475,52.4272 16.6435,52.4272 C23.9465,52.4272 32.3605,56.6342 32.3605,64.4642 C32.3605,65.8662 32.0105,66.1002 30.6665,66.1002 L24.9995,66.1002 C23.3635,66.1002 23.5955,64.9322 23.3045,64.1132 C22.6615,62.3032 20.5565,60.5502 16.6435,60.5502 C12.7865,60.5502 10.2145,63.1212 10.2145,66.8602 L10.2145,78.6042 C10.2145,82.3432 12.7865,84.5062 16.6435,84.5062 C20.4415,84.5062 23.1285,82.7522 23.1285,78.2532 L17.8705,78.2532 C16.5265,78.2532 16.1755,77.6112 16.1755,76.5592 L16.1755,72.0012 C16.1755,70.9502 16.5265,70.3072 17.8705,70.3072 L30.6665,70.3072 C32.0105,70.3072 32.3605,70.9502 32.3605,72.0012" id="Fill-14" fill="#FEFEFE"></path>
                <path d="M60.8791,66.4514 C60.8791,62.7124 58.1911,60.5504 54.3351,60.5504 C50.5371,60.5504 47.8501,62.7124 47.8501,66.4514 L47.8501,78.6034 C47.8501,82.3434 50.5371,84.5064 54.3351,84.5064 C58.1911,84.5064 60.8791,82.3434 60.8791,78.6034 L60.8791,66.4514 Z M70.0521,79.4224 C70.0521,88.6544 61.2871,92.6284 54.3351,92.6284 C47.3821,92.6284 38.7341,88.6544 38.7341,79.4224 L38.7341,65.6344 C38.7341,56.4014 47.3821,52.4274 54.3351,52.4274 C61.2871,52.4274 70.0521,56.4014 70.0521,65.6344 L70.0521,79.4224 Z" id="Fill-16" fill="#FEFEFE"></path>
                <path d="M105.2316,85.2649 L105.2316,90.0569 C105.2316,91.1079 104.8806,91.7519 103.5366,91.7519 L79.2306,91.7519 C77.8866,91.7519 77.5366,91.1079 77.5366,90.0569 L77.5366,54.9979 C77.5366,53.6549 78.1776,53.3039 79.2306,53.3039 L85.0146,53.3039 C86.0666,53.3039 86.7106,53.6549 86.7106,54.9979 L86.7106,83.5709 L103.5366,83.5709 C104.8806,83.5709 105.2316,84.2139 105.2316,85.2649" id="Fill-18" fill="#FEFEFE"></path>
                <path d="M132.8722,67.2698 C132.8722,63.5888 130.1842,61.4268 126.3292,61.4268 L120.7192,61.4268 L120.7192,83.6288 L126.3292,83.6288 C130.1842,83.6288 132.8722,81.5258 132.8722,77.7868 L132.8722,67.2698 Z M142.0462,66.4518 L142.0462,78.6038 C142.0462,87.7778 133.2812,91.7518 126.3292,91.7518 L113.2392,91.7518 C111.8952,91.7518 111.5452,91.1078 111.5452,90.0568 L111.5452,54.9988 C111.5452,53.9478 111.8952,53.3038 113.2392,53.3038 L126.3292,53.3038 C133.2812,53.3038 142.0462,57.3368 142.0462,66.4518 Z" id="Fill-20" fill="#FEFEFE"></path>
                <path d="M179.8263,92.884 L152.3773,92.884 C151.5323,92.884 150.9023,91.969 151.0813,90.999 L153.3873,78.487 C153.5183,77.771 154.0583,77.26 154.6823,77.26 L177.5203,77.26 C178.1443,77.26 178.6843,77.771 178.8163,78.487 L181.1223,90.999 C181.3013,91.969 180.6713,92.884 179.8263,92.884" id="Fill-22" fill="#F8EC23"></path>
            </g>
        </g>
    </g>
</svg>