<svg viewBox="0 0 24 24" xmlns="http://www.w3.org/2000/svg"><g fill="none" fill-rule="evenodd"><circle cx="12" cy="11.25" fill="#fff" r="11.25"/><path d="m12 24c6.62775 0 12-5.37225 12-12s-5.37225-12-12-12-12 5.37225-12 12 5.37225 12 12 12zm0-21.333c-5.15475 0-9.333 4.17825-9.333 9.333s4.17825 9.333 9.333 9.333v-2.3325c-3.86575754 0-6.9996119-3.1337425-6.99974996-6.9995-.00013805-3.86575757 3.13349248-6.99972385 6.99925006-6.99999998 3.8657575-.00027613 6.9998357 3.13324246 7.0002499 6.99899998h2.33325c0-5.1555-4.17825-9.33375-9.333-9.33375zm-5.60025 9.333c0 3.0929327 2.50731733 5.60025 5.60025 5.60025v-2.03625c-1.9677333-.0004142-3.56263798-1.5957666-3.56249991-3.5634999.00013807-1.9677334 1.59526661-3.56286194 3.56300001-3.56300001 1.9677333-.00013807 3.5630857 1.59476661 3.5634999 3.56249991h2.03625c0-3.09293267-2.5073173-5.60025-5.60025-5.60025-3.09293267 0-5.60025 2.50731733-5.60025 5.60025z" fill="#f43e37"/></g></svg>