<?xml version="1.0" encoding="UTF-8"?>
<svg width="70px" height="70px" viewBox="0 0 70 70" version="1.1" xmlns="http://www.w3.org/2000/svg" xmlns:xlink="http://www.w3.org/1999/xlink">
    <!-- Generator: Sketch 64 (93537) - https://sketch.com -->
    <title>Artboard Copy 3</title>
    <desc>Created with Sketch.</desc>
    <g id="Artboard-Copy-3" stroke="none" stroke-width="1" fill="none" fill-rule="evenodd">
        <path d="M11.9226163,9.00430752 C11.1333994,8.96321241 10.4427604,9.21627363 9.86722784,9.75873616 C9.29169529,10.3011987 9.00000493,10.9841954 9.00000493,11.7814666 L9.00000493,15.4896907 C9.00000493,16.960924 10.1297848,18.1764452 11.6014358,18.2668735 C33.175107,19.5654883 50.4313327,36.8163276 51.7303239,58.3833531 C51.8208157,59.8545745 53.0444169,61.0002923 54.5242728,60.9840732 L58.2177887,60.9840732 C59.0152104,60.9840732 59.6984769,60.6924178 60.241071,60.1170863 C60.783665,59.5499691 61.0368279,58.8434709 60.9956845,58.0461997 C59.5240335,31.6298803 38.3552566,10.475529 11.9226163,9.00430752 Z M12.0028816,25.3301443 C11.1971361,25.2644659 10.4752232,25.5019069 9.88328092,26.0525243 C9.29133856,26.6032129 9.00000493,27.2936274 9.00000493,28.1073033 L9.00000493,31.8156344 C9.00000493,33.2539988 10.0823391,34.4451982 11.5211704,34.576674 C24.16612,35.7684796 34.2393665,45.8225156 35.4314562,58.4635581 C35.5630914,59.9018868 36.7547054,60.9999951 38.1934178,60.9999951 L41.9028678,60.9999951 C42.7168183,60.9999951 43.4074573,60.6927625 43.9582563,60.1009906 C44.5008503,59.5091831 44.7466407,58.7874807 44.6808826,57.9820309 C43.2338463,40.6149918 29.383489,26.7767111 12.0028816,25.3301443 Z M16.6115418,45.7496071 C12.4038378,45.7551033 8.99666826,49.1683804 9.00000246,53.3747904 C8.99665513,57.5812098 12.4038285,60.9945014 16.6115418,60.9999976 C18.6349942,61.0016139 20.5760371,60.1987674 22.0068379,58.7684141 C23.4376386,57.3380608 24.2407416,55.3976196 24.2391342,53.3747904 C24.2407352,51.3519654 23.4376295,49.4115303 22.0068294,47.9811822 C20.5760294,46.550834 18.6349901,45.7479908 16.6115418,45.7496071 L16.6115418,45.7496071 Z" id="Combined-Shape-Copy" fill="#F8EC23"></path>
    </g>
</svg>