<svg viewBox="0 0 24 24" xmlns="http://www.w3.org/2000/svg"><path d="m11.9994286.03957143c-6.60700003 0-11.96328574 5.35614286-11.96328574 11.96314287 0 6.6072857 5.35628571 11.963 11.96328574 11.963 6.6077143 0 11.9634285-5.3557143 11.9634285-11.963 0-6.60657144-5.3557142-11.96257144-11.9635714-11.96257144zm5.4862857 17.25428567c-.2142857.3514286-.6742857.4628572-1.0257143.2471429-2.8088571-1.7157143-6.3448571-2.1042857-10.50914286-1.1528571-.40128571.0914285-.80128571-.16-.89271428-.5614286-.09185715-.4014286.15857143-.8014286.56085714-.8928572 4.5571429-1.0415714 8.4661429-.5928571 11.6195714 1.3342858.3514286.2157142.4628572.6742857.2471429 1.0257142zm1.4642857-3.2578571c-.27.4392857-.8442857.5778571-1.2828571.3078571-3.2157143-1.977-8.11757147-2.5494285-11.9211429-1.3948571-.49328571.149-1.01428571-.129-1.164-.6214286-.14857143-.4932857.12957143-1.0132857.622-1.1632857 4.34471429-1.3182857 9.746-.6797143 13.4388571 1.5895714.4385715.27.5771429.8442858.3071429 1.2822858zm.1257143-3.392c-3.8557143-2.29014286-10.21714287-2.50071429-13.89842859-1.38342857-.59114285.17928571-1.21628571-.15442857-1.39542857-.74557143-.17914285-.59142857.15428572-1.21614286.74585715-1.39585714 4.22585714-1.28285715 11.25085711-1.035 15.69000001 1.60028571.5328571.31557143.7071428 1.00228572.3914286 1.53328573-.3142858.5317143-1.0028572.707-1.5328572.3912857z" fill="#1ed760"/></svg>