<svg viewBox="0 0 24 17" xmlns="http://www.w3.org/2000/svg"><g fill="none" fill-rule="evenodd"><path d="m23.4982429 2.62365278c-.2765418-1.03326006-1.0886104-1.84525054-2.1218621-2.12184025-1.8708575-.50181253-9.3763808-.50181253-9.3763808-.50181253s-7.50542247 0-9.37635562.50181253c-1.03325166.27658971-1.84524214 1.08858019-2.12183185 2.12184025-.50181253 1.87092475-.50181253 5.77676724-.50181253 5.77676724s0 3.90585928.50181253 5.77680088c.27658971 1.0332516 1.08858019 1.8452362 2.12183185 2.121778 1.87093315.5018411 9.37635562.5018411 9.37635562.5018411s7.5055233 0 9.3763808-.5018411c1.0332517-.2765418 1.8453203-1.0885264 2.1218621-2.121778.5018411-1.8709416.5018411-5.77680088.5018411-5.77680088s-.0020161-3.90584249-.5018411-5.77676724z" fill="#f00"/><path d="m9.59773189 12.000336 6.23512771-3.59957996-6.23512771-3.59963878z" fill="#fff"/></g></svg>